<svg width="473" height="62" viewBox="0 0 473 62" fill="none" xmlns="http://www.w3.org/2000/svg">
<path fill-rule="evenodd" clip-rule="evenodd" d="M3.921 4.016L0 8.031L11.219 19.282L22.437 30.533L11.436 41.5L0.434 52.468L4.44 56.475L8.447 60.481L23.683 45.245L38.919 30.008L23.94 15.004C15.702 6.752 8.709 0 8.401 0C8.094 0 6.077 1.807 3.921 4.016ZM115.436 14.522C115.436 14.809 118.237 19.646 121.66 25.272C127.385 34.68 127.915 36.041 128.273 42.25L128.662 49H132.155H135.648L135.278 41.25C134.93 33.959 134.621 33.056 130.065 26C123.593 15.976 121.649 14 118.262 14C116.708 14 115.436 14.235 115.436 14.522ZM139.989 17.12C138.545 18.836 136.663 21.594 135.807 23.249C134.346 26.074 134.378 26.386 136.316 28.324C137.451 29.46 138.55 30.189 138.758 29.944C138.965 29.7 141.467 26.013 144.316 21.75L149.497 14H146.055C143.43 14 141.991 14.74 139.989 17.12ZM166.986 14.92C166.302 16.025 175.657 43.161 177.902 46.589C178.986 48.243 180.416 49 182.459 49C184.096 49 185.436 48.644 185.436 48.209C185.436 47.449 176.574 22.42 174.298 16.75C173.459 14.661 172.515 14 170.374 14C168.823 14 167.298 14.414 166.986 14.92ZM202.804 15.088C194.857 17.392 189.722 28.335 192.398 37.267C194.904 45.632 201.133 48.984 214.186 48.994L221.436 49V43.5C221.436 38.046 221.411 38 218.411 38C216.105 38 215.161 38.594 214.436 40.5C213.307 43.47 209.938 43.807 204.966 41.447C195.471 36.942 197.257 22.686 207.575 20.622C209.286 20.28 213.105 20 216.061 20C221.367 20 221.436 19.961 221.436 17V14L213.686 14.09C209.424 14.14 204.527 14.589 202.804 15.088ZM234.936 15.856C228.151 20.102 224.602 27.604 225.922 34.909C227.206 42.019 234.1 49 239.837 49C242.854 49 241.7 44.303 237.987 41.471C231.031 36.166 231.045 26.688 238.017 21.37C244.034 16.781 241.294 11.877 234.936 15.856ZM245.436 16.129C245.436 17.3 247 19.988 248.911 22.104C254.887 28.718 254.889 35.446 248.918 40.88C245.53 43.963 244.439 47.266 246.407 48.482C247.912 49.412 252.817 46.469 256.22 42.593C263.45 34.359 260.475 19.421 250.8 15.379C246.329 13.51 245.436 13.635 245.436 16.129ZM296.436 17V20H309.436H322.436V17V14H309.436H296.436V17ZM343.999 16.25C345.949 22.54 354.601 46.674 355.316 47.819C355.818 48.623 357.528 49.014 359.692 48.819L363.244 48.5L357.796 33.508C351.235 15.451 350.383 14 346.346 14C343.648 14 343.381 14.257 343.999 16.25ZM368.436 16.793V19.807L378.018 20.153C386.106 20.446 387.82 20.803 389.018 22.441C389.798 23.509 390.436 24.885 390.436 25.5C390.436 26.115 389.798 27.491 389.018 28.559C387.82 30.197 386.106 30.554 378.018 30.847L368.436 31.193V40.097V49H371.936H375.436V43C375.436 37.026 375.449 37 378.378 37C380.793 37 382.145 38.073 385.936 43C390.227 48.577 390.837 49 394.582 49H398.612L394.022 42.569L389.433 36.138L392.303 34.095C396.53 31.085 398.007 26.848 396.537 21.944C394.711 15.849 391.901 14.582 379.244 14.149L368.436 13.779V16.793ZM417.999 16.25C419.949 22.54 428.601 46.674 429.316 47.819C429.818 48.623 431.528 49.014 433.692 48.819L437.244 48.5L431.796 33.508C425.235 15.451 424.383 14 420.346 14C417.648 14 417.381 14.257 417.999 16.25ZM443.436 14.889C443.436 15.922 459.082 38.491 464.137 44.75C466.475 47.645 468.346 49 470.003 49H472.436V31.5V14H469.436H466.436V25.685V37.369L459.824 27.935C451.11 15.5 449.65 14 446.262 14C444.708 14 443.436 14.4 443.436 14.889ZM442.436 35.378V49H445.436H448.436V39.901C448.436 30.746 447.037 25.574 443.844 22.924C442.645 21.929 442.436 23.778 442.436 35.378ZM157.531 35.064C154.729 41.699 152.436 47.549 152.436 48.064C152.436 48.579 153.778 49 155.419 49C157.975 49 158.746 48.319 160.802 44.25C165.149 35.644 166.443 30.611 165.339 26.612C164.791 24.625 163.956 23 163.484 23C163.012 23 160.333 28.429 157.531 35.064ZM334.978 34.75C332.346 41.213 329.974 47.063 329.707 47.75C329.401 48.539 330.113 49 331.638 49C335.489 49 337.207 47.027 340.808 38.466C344.057 30.742 344.13 30.29 342.704 26.716C341.889 24.672 340.894 23 340.492 23C340.091 23 337.61 28.287 334.978 34.75ZM409.015 34.75C406.368 41.213 403.982 47.063 403.712 47.75C403.402 48.54 404.11 49 405.638 49C409.489 49 411.207 47.027 414.808 38.466C418.057 30.742 418.13 30.29 416.704 26.716C415.889 24.672 414.909 23 414.525 23C414.142 23 411.663 28.287 409.015 34.75ZM207.436 31.5V35.091L214.186 34.796L220.936 34.5V31.5V28.5L214.186 28.204L207.436 27.909V31.5ZM296.436 38.5V49H299.436H302.436V41.5V34H311.436H320.436V31V28H308.436H296.436V38.5ZM39.436 56.5V62H64.936H90.436V56.5V51H64.936H39.436V56.5Z" fill="#B1C2EF"/>
</svg>
